<svg width="3431" height="1080" viewBox="0 0 3431 1080" fill="none" xmlns="http://www.w3.org/2000/svg">
<path d="M750 846H330C252.68 846 190 783.32 190 706V645.065C190 547.029 288.162 479.352 379.789 514.218L489.835 556.092C521.869 568.281 557.262 568.296 589.305 556.133L700.319 513.996C791.929 479.224 890 546.898 890 644.885V706C890 783.32 827.32 846 750 846Z" fill="#F2F5FA"/>
<path d="M489.867 498.133L247.748 406.215C212.985 393.018 190 359.705 190 322.522C190 273.08 230.08 233 279.522 233H800.692C850.015 233 890 272.985 890 322.308C890 359.4 867.073 392.631 832.397 405.799L589.257 498.129C557.242 510.286 521.882 510.288 489.867 498.133Z" fill="#F2F5FA"/>
<path d="M1318.04 265H1380.68L1564.28 769H1510.64L1471.4 661H1227.68L1188.44 769H1134.8L1318.04 265ZM1246.04 610.6H1452.68L1349.36 326.92L1246.04 610.6ZM1642.34 769V265H1692.74V769H1642.34ZM1973.52 769V265H2023.92V769H1973.52ZM2434.84 546.16V769H2384.44V556.24C2384.44 536.56 2379.64 518.68 2370.04 502.6C2360.44 486.52 2347.6 473.68 2331.52 464.08C2315.44 454.48 2297.56 449.68 2277.88 449.68C2258.44 449.68 2240.56 454.48 2224.24 464.08C2208.16 473.68 2195.32 486.52 2185.72 502.6C2176.12 518.68 2171.32 536.56 2171.32 556.24V769H2120.92V409H2171.32V458.68C2184.04 440.44 2200.6 425.92 2221 415.12C2241.4 404.32 2263.6 398.92 2287.6 398.92C2314.72 398.92 2339.44 405.52 2361.76 418.72C2384.08 431.92 2401.84 449.68 2415.04 472C2428.24 494.32 2434.84 519.04 2434.84 546.16ZM2690.42 398.92C2725.46 398.92 2757.26 407.44 2785.82 424.48C2814.62 441.52 2837.54 464.44 2854.58 493.24C2871.62 521.8 2880.14 553.6 2880.14 588.64C2880.14 614.8 2875.22 639.4 2865.38 662.44C2855.54 685.24 2841.86 705.4 2824.34 722.92C2807.06 740.2 2786.9 753.76 2763.86 763.6C2741.06 773.44 2716.58 778.36 2690.42 778.36C2660.66 778.36 2634.98 771.28 2613.38 757.12C2591.78 742.96 2574.74 724.48 2562.26 701.68V769H2511.86V229H2562.26V475.6C2574.74 452.8 2591.78 434.32 2613.38 420.16C2634.98 406 2660.66 398.92 2690.42 398.92ZM2690.06 729.04C2715.74 729.04 2739.02 722.8 2759.9 710.32C2780.78 697.6 2797.46 680.56 2809.94 659.2C2822.42 637.84 2828.66 614.32 2828.66 588.64C2828.66 562.24 2822.3 538.48 2809.58 517.36C2796.86 496 2779.94 479.08 2758.82 466.6C2737.94 454.12 2715.02 447.88 2690.06 447.88C2664.62 447.88 2642.54 454.24 2623.82 466.96C2605.34 479.68 2591.06 496.72 2580.98 518.08C2571.14 539.44 2566.22 562.96 2566.22 588.64C2566.22 614.8 2571.26 638.56 2581.34 659.92C2591.42 681.04 2605.7 697.84 2624.18 710.32C2642.9 722.8 2664.86 729.04 2690.06 729.04ZM2901.75 769L3033.51 588.28L2902.11 407.92H2964.39L3064.83 545.08L3164.91 407.92H3226.83L3095.79 588.28L3227.55 769H3165.27L3064.83 630.76L2964.03 769H2901.75Z" fill="#F2F5FA"/>
</svg>
